<?xml version="1.0" encoding="utf-8"?>
<!-- Generator: Adobe Illustrator 25.0.0, SVG Export Plug-In . SVG Version: 6.00 Build 0)  -->
<svg version="1.1" id="Capa_1" xmlns="http://www.w3.org/2000/svg" xmlns:xlink="http://www.w3.org/1999/xlink" x="0px" y="0px"
	 viewBox="0 0 595.3 841.9" style="enable-background:new 0 0 595.3 841.9;" xml:space="preserve">
<style type="text/css">
	.st0{fill:#5A2B86;}
	.st1{fill:#222652;}
</style>
<g>
	<path class="st0" d="M185.6,275.2v6.6h-7.2v-19.3h7.2v6.6h10.8v-6.6h7.2v19.3h-7.2v-6.6H185.6z"/>
	<path class="st0" d="M207.8,262.5h21.6v5h-14.4v2.5h14.4v4.5h-14.4v2.5h14.4v5h-21.6V262.5z"/>
	<path class="st0" d="M239.8,262.5h8.6l9.9,19.3h-8.1l-1.4-3.3h-9.2l-1.4,3.3h-8.1L239.8,262.5z M241.5,273.8h5.1l-2.5-5.7
		L241.5,273.8z"/>
	<path class="st0" d="M267.1,275.9l5.6-13.4h8.1l-9.5,19.3h-8.5l-9.4-19.3h8.1L267.1,275.9z"/>
	<path class="st0" d="M281.4,262.5H303v5h-14.4v2.5H303v4.5h-14.4v2.5H303v5h-21.6V262.5z"/>
	<path class="st0" d="M324.7,262.4h7.2v19.3h-8.1L314,270v11.8h-7.2v-19.3h9.9l8.1,10.2L324.7,262.4L324.7,262.4z"/>
</g>
<polygon class="st0" points="195.6,287.4 179.2,287.4 179.2,331.1 228.6,331.1 228.6,317.3 195.6,317.3 "/>
<path class="st0" d="M258.6,286.3c-15.9,0-28.9,4.8-28.8,21.4v3.2c-0.1,16.5,12.9,21.3,28.8,21.4c15.9,0,28.9-4.8,28.8-21.4v-3.2
	C287.4,291.1,274.5,286.3,258.6,286.3z M271,309.8c0.1,7.2-5.6,8.5-12.3,8.6c-6.8-0.1-12.5-1.4-12.4-8.6v-1.1
	c-0.1-7.1,5.6-8.4,12.4-8.5c6.7,0.1,12.4,1.4,12.3,8.5V309.8z"/>
<path class="st0" d="M333.2,309.8c0.1,7.2-5.6,8.4-12.3,8.5c-6.8-0.1-12.4-1.3-12.4-8.5v-22.4H292v23.5c-0.1,16.5,13,21.3,28.8,21.3
	c15.8,0,28.9-4.8,28.8-21.3v-3.5h-16.5V309.8z"/>
<rect x="333.2" y="290.1" class="st1" width="16.5" height="5.4"/>
<rect x="333.2" y="284.3" class="st1" width="16.5" height="5.4"/>
<rect x="333.2" y="295.9" class="st1" width="16.5" height="5.4"/>
<rect x="333.2" y="301.7" class="st1" width="16.5" height="5.4"/>
<rect x="333.2" y="266.9" class="st1" width="16.5" height="5.4"/>
<rect x="333.2" y="272.7" class="st1" width="16.5" height="5.4"/>
<rect x="333.2" y="278.5" class="st1" width="16.5" height="5.4"/>
<path class="st0" d="M394.7,287.4h-37.6v43.8h37.6c11.6,0.2,20.2-10,20.1-21.9C414.9,297.4,406.2,287.3,394.7,287.4z M391.6,317.3
	h-18v-16h18c4.3,0,6.7,3.6,6.7,8C398.3,313.7,395.9,317.3,391.6,317.3z"/>
</svg>
