<?xml version="1.0" encoding="utf-8"?>
<!-- Generator: Adobe Illustrator 25.0.0, SVG Export Plug-In . SVG Version: 6.00 Build 0)  -->
<svg version="1.1" id="Capa_1" xmlns="http://www.w3.org/2000/svg" xmlns:xlink="http://www.w3.org/1999/xlink" x="0px" y="0px"
	 viewBox="0 0 161.4 69.8" style="enable-background:new 0 0 161.4 69.8;" xml:space="preserve">
<style type="text/css">
	.st0{fill:#5A2B86;}
	.st1{fill:#222652;}
</style>
<g id="Capa_1-2">
	<path class="st0" d="M13.4,21.2v4.1H9V13.3h4.4v4.1H20v-4.1h4.4v11.9H20v-4.1H13.4z"/>
	<path class="st0" d="M27,13.3h13.3v3.1h-8.9v1.5h8.9v2.8h-8.9v1.5h8.9v3.1H27V13.3z"/>
	<path class="st0" d="M46.7,13.3H52l6.1,11.9h-5l-0.9-2h-5.7l-0.9,2h-5L46.7,13.3z M47.8,20.3h3.1l-1.6-3.5L47.8,20.3z"/>
	<path class="st0" d="M63.6,21.6l3.5-8.3h5l-5.8,11.9h-5.3l-5.8-11.9h5L63.6,21.6z"/>
	<path class="st0" d="M72.3,13.3h13.3v3.1h-8.9v1.5h8.9v2.8h-8.9v1.5h8.9v3.1H72.3V13.3z"/>
	<path class="st0" d="M99,13.3h4.4v11.9h-5L92.4,18v7.3H88V13.3H94l5,6.3V13.3z"/>
	<polygon class="st0" points="19.6,28.7 9.4,28.7 9.4,55.6 39.8,55.6 39.8,47.1 19.6,47.1 	"/>
	<path class="st0" d="M58.3,28c-9.8,0-17.8,2.9-17.7,13.1v2c0,10.2,8,13.1,17.7,13.1c9.8,0,17.8-2.9,17.7-13.1v-2
		C76,31,68.1,28,58.3,28z M65.9,42.5c0.1,4.4-3.5,5.2-7.6,5.3c-4.2-0.1-7.7-0.9-7.6-5.3v-0.7c-0.1-4.4,3.5-5.2,7.6-5.2
		c4.1,0.1,7.7,0.9,7.6,5.2V42.5z"/>
	<path class="st0" d="M104.2,42.5c0.1,4.4-3.5,5.2-7.6,5.2c-4.2-0.1-7.7-0.8-7.6-5.2V28.7H78.9v14.5c0,10.2,8,13.1,17.7,13.1
		c9.7,0,17.8-2.9,17.7-13.1V41h-10.1V42.5z"/>
	<rect x="104.2" y="30.3" class="st1" width="10.1" height="3.3"/>
	<rect x="104.2" y="26.8" class="st1" width="10.1" height="3.3"/>
	<rect x="104.2" y="33.9" class="st1" width="10.1" height="3.3"/>
	<rect x="104.2" y="37.5" class="st1" width="10.1" height="3.3"/>
	<rect x="104.2" y="16.1" class="st1" width="10.1" height="3.3"/>
	<rect x="104.2" y="19.7" class="st1" width="10.1" height="3.3"/>
	<rect x="104.2" y="23.2" class="st1" width="10.1" height="3.3"/>
	<path class="st0" d="M142,28.7h-23.1v26.9H142c7.1,0.1,12.4-6.2,12.4-13.5C154.5,34.8,149.2,28.6,142,28.7z M140.1,47.1h-11.1v-9.8
		h11.1c2.6,0,4.1,2.2,4.1,4.9S142.8,47.1,140.1,47.1z"/>
</g>
</svg>
